<?xml version="1.0" encoding="UTF-8" standalone="no"?>
<!DOCTYPE svg PUBLIC "-//W3C//DTD SVG 1.1//EN"
 "http://www.w3.org/Graphics/SVG/1.1/DTD/svg11.dtd">
<!-- Generated by graphviz version 2.38.0 (20140413.2041)
 -->
<!-- Title: G Pages: 1 -->
<svg width="1167pt" height="638pt"
 viewBox="0.00 0.00 1166.70 638.00" xmlns="http://www.w3.org/2000/svg" xmlns:xlink="http://www.w3.org/1999/xlink">
<g id="graph0" class="graph" transform="scale(1 1) rotate(0) translate(4 634)">
<title>G</title>
<polygon fill="white" stroke="none" points="-4,4 -4,-634 1162.7,-634 1162.7,4 -4,4"/>
<!-- github.com/cancerit/cgpBigWig -->
<g id="node1" class="node"><title>github.com/cancerit/cgpBigWig</title>
<g id="a_node1"><a xlink:href="https://github.com/cancerit/cgpBigWig" xlink:title="github.com/cancerit/cgpBigWig">
<ellipse fill="none" stroke="black" cx="159.236" cy="-315" rx="159.472" ry="18"/>
<text text-anchor="middle" x="159.236" y="-311.3" font-family="Times,serif" font-size="14.00">github.com/cancerit/cgpBigWig</text>
</a>
</g>
</g>
<!-- github.com/dpryan79 -->
<g id="node2" class="node"><title>github.com/dpryan79</title>
<g id="a_node2"><a xlink:href="https://github.com/dpryan79" xlink:title="github.com/dpryan79">
<ellipse fill="none" stroke="black" cx="483.16" cy="-612" rx="110.48" ry="18"/>
<text text-anchor="middle" x="483.16" y="-608.3" font-family="Times,serif" font-size="14.00">github.com/dpryan79</text>
</a>
</g>
</g>
<!-- github.com/cancerit/cgpBigWig&#45;&#45;github.com/dpryan79 -->
<g id="edge1" class="edge"><title>github.com/cancerit/cgpBigWig&#45;&#45;github.com/dpryan79</title>
<path fill="none" stroke="black" d="M167.55,-332.998C188.516,-382.158 253.86,-519.401 354.472,-585 365.765,-592.363 378.706,-597.762 391.92,-601.712"/>
</g>
<!-- github.com/brentp -->
<g id="node4" class="node"><title>github.com/brentp</title>
<g id="a_node4"><a xlink:href="https://github.com/brentp" xlink:title="github.com/brentp">
<ellipse fill="none" stroke="black" cx="483.16" cy="-342" rx="97.4827" ry="18"/>
<text text-anchor="middle" x="483.16" y="-338.3" font-family="Times,serif" font-size="14.00">github.com/brentp</text>
</a>
</g>
</g>
<!-- github.com/cancerit/cgpBigWig&#45;&#45;github.com/brentp -->
<g id="edge3" class="edge"><title>github.com/cancerit/cgpBigWig&#45;&#45;github.com/brentp</title>
<path fill="none" stroke="black" d="M287.931,-325.71C323.392,-328.684 361.104,-331.847 393.772,-334.587"/>
</g>
<!-- github.com/XiaoTaoWang -->
<g id="node9" class="node"><title>github.com/XiaoTaoWang</title>
<g id="a_node9"><a xlink:href="https://github.com/XiaoTaoWang" xlink:title="github.com/XiaoTaoWang">
<ellipse fill="none" stroke="black" cx="483.16" cy="-288" rx="128.877" ry="18"/>
<text text-anchor="middle" x="483.16" y="-284.3" font-family="Times,serif" font-size="14.00">github.com/XiaoTaoWang</text>
</a>
</g>
</g>
<!-- github.com/cancerit/cgpBigWig&#45;&#45;github.com/XiaoTaoWang -->
<g id="edge8" class="edge"><title>github.com/cancerit/cgpBigWig&#45;&#45;github.com/XiaoTaoWang</title>
<path fill="none" stroke="black" d="M287.931,-304.29C315.843,-301.949 345.15,-299.491 372.295,-297.215"/>
</g>
<!-- github.com/esebesty -->
<g id="node13" class="node"><title>github.com/esebesty</title>
<g id="a_node13"><a xlink:href="https://github.com/esebesty" xlink:title="github.com/esebesty">
<ellipse fill="none" stroke="black" cx="483.16" cy="-504" rx="107.482" ry="18"/>
<text text-anchor="middle" x="483.16" y="-500.3" font-family="Times,serif" font-size="14.00">github.com/esebesty</text>
</a>
</g>
</g>
<!-- github.com/cancerit/cgpBigWig&#45;&#45;github.com/esebesty -->
<g id="edge13" class="edge"><title>github.com/cancerit/cgpBigWig&#45;&#45;github.com/esebesty</title>
<path fill="none" stroke="black" d="M176.122,-333.146C206.917,-367.093 278.424,-440.099 354.472,-477 368.436,-483.776 384.069,-488.859 399.478,-492.669"/>
</g>
<!-- github.com/fcliquet -->
<g id="node14" class="node"><title>github.com/fcliquet</title>
<g id="a_node14"><a xlink:href="https://github.com/fcliquet" xlink:title="github.com/fcliquet">
<ellipse fill="none" stroke="black" cx="483.16" cy="-558" rx="102.082" ry="18"/>
<text text-anchor="middle" x="483.16" y="-554.3" font-family="Times,serif" font-size="14.00">github.com/fcliquet</text>
</a>
</g>
</g>
<!-- github.com/cancerit/cgpBigWig&#45;&#45;github.com/fcliquet -->
<g id="edge15" class="edge"><title>github.com/cancerit/cgpBigWig&#45;&#45;github.com/fcliquet</title>
<path fill="none" stroke="black" d="M170.739,-332.981C196.313,-375.033 266.237,-480.082 354.472,-531 367.719,-538.644 382.857,-544.135 397.969,-548.075"/>
</g>
<!-- github.com/xiongxu -->
<g id="node15" class="node"><title>github.com/xiongxu</title>
<g id="a_node15"><a xlink:href="https://github.com/xiongxu" xlink:title="github.com/xiongxu">
<ellipse fill="none" stroke="black" cx="483.16" cy="-180" rx="102.882" ry="18"/>
<text text-anchor="middle" x="483.16" y="-176.3" font-family="Times,serif" font-size="14.00">github.com/xiongxu</text>
</a>
</g>
</g>
<!-- github.com/cancerit/cgpBigWig&#45;&#45;github.com/xiongxu -->
<g id="edge17" class="edge"><title>github.com/cancerit/cgpBigWig&#45;&#45;github.com/xiongxu</title>
<path fill="none" stroke="black" d="M186.343,-297.125C222.526,-273.155 290.687,-230.857 354.472,-207 370.919,-200.848 389.111,-195.947 406.483,-192.102"/>
</g>
<!-- github.com/sbamin -->
<g id="node17" class="node"><title>github.com/sbamin</title>
<g id="a_node17"><a xlink:href="https://github.com/sbamin" xlink:title="github.com/sbamin">
<ellipse fill="none" stroke="black" cx="483.16" cy="-450" rx="100.182" ry="18"/>
<text text-anchor="middle" x="483.16" y="-446.3" font-family="Times,serif" font-size="14.00">github.com/sbamin</text>
</a>
</g>
</g>
<!-- github.com/cancerit/cgpBigWig&#45;&#45;github.com/sbamin -->
<g id="edge21" class="edge"><title>github.com/cancerit/cgpBigWig&#45;&#45;github.com/sbamin</title>
<path fill="none" stroke="black" d="M186.343,-332.875C222.526,-356.845 290.687,-399.143 354.472,-423 371.237,-429.271 389.815,-434.243 407.49,-438.12"/>
</g>
<!-- github.com/zx8754 -->
<g id="node18" class="node"><title>github.com/zx8754</title>
<g id="a_node18"><a xlink:href="https://github.com/zx8754" xlink:title="github.com/zx8754">
<ellipse fill="none" stroke="black" cx="483.16" cy="-18" rx="100.182" ry="18"/>
<text text-anchor="middle" x="483.16" y="-14.3" font-family="Times,serif" font-size="14.00">github.com/zx8754</text>
</a>
</g>
</g>
<!-- github.com/cancerit/cgpBigWig&#45;&#45;github.com/zx8754 -->
<g id="edge23" class="edge"><title>github.com/cancerit/cgpBigWig&#45;&#45;github.com/zx8754</title>
<path fill="none" stroke="black" d="M167.55,-297.002C188.516,-247.842 253.86,-110.599 354.472,-45 366.999,-36.8324 381.554,-31.0816 396.258,-27.0443"/>
</g>
<!-- github.com/chapmanb -->
<g id="node19" class="node"><title>github.com/chapmanb</title>
<g id="a_node19"><a xlink:href="https://github.com/chapmanb" xlink:title="github.com/chapmanb">
<ellipse fill="none" stroke="black" cx="483.16" cy="-396" rx="114.28" ry="18"/>
<text text-anchor="middle" x="483.16" y="-392.3" font-family="Times,serif" font-size="14.00">github.com/chapmanb</text>
</a>
</g>
</g>
<!-- github.com/cancerit/cgpBigWig&#45;&#45;github.com/chapmanb -->
<g id="edge25" class="edge"><title>github.com/cancerit/cgpBigWig&#45;&#45;github.com/chapmanb</title>
<path fill="none" stroke="black" d="M217.357,-331.898C255.922,-343.055 308.063,-357.654 354.472,-369 372.96,-373.52 393.063,-377.981 411.731,-381.934"/>
</g>
<!-- github.com/mdozmorov -->
<g id="node20" class="node"><title>github.com/mdozmorov</title>
<g id="a_node20"><a xlink:href="https://github.com/mdozmorov" xlink:title="github.com/mdozmorov">
<ellipse fill="none" stroke="black" cx="483.16" cy="-234" rx="120.479" ry="18"/>
<text text-anchor="middle" x="483.16" y="-230.3" font-family="Times,serif" font-size="14.00">github.com/mdozmorov</text>
</a>
</g>
</g>
<!-- github.com/cancerit/cgpBigWig&#45;&#45;github.com/mdozmorov -->
<g id="edge27" class="edge"><title>github.com/cancerit/cgpBigWig&#45;&#45;github.com/mdozmorov</title>
<path fill="none" stroke="black" d="M217.357,-298.102C255.922,-286.945 308.063,-272.346 354.472,-261 372.52,-256.588 392.107,-252.232 410.395,-248.349"/>
</g>
<!-- github.com/itsvenu -->
<g id="node22" class="node"><title>github.com/itsvenu</title>
<g id="a_node22"><a xlink:href="https://github.com/itsvenu" xlink:title="github.com/itsvenu">
<ellipse fill="none" stroke="black" cx="483.16" cy="-72" rx="100.983" ry="18"/>
<text text-anchor="middle" x="483.16" y="-68.3" font-family="Times,serif" font-size="14.00">github.com/itsvenu</text>
</a>
</g>
</g>
<!-- github.com/cancerit/cgpBigWig&#45;&#45;github.com/itsvenu -->
<g id="edge32" class="edge"><title>github.com/cancerit/cgpBigWig&#45;&#45;github.com/itsvenu</title>
<path fill="none" stroke="black" d="M170.739,-297.019C196.313,-254.967 266.237,-149.918 354.472,-99 367.817,-91.2989 383.082,-85.784 398.305,-81.8372"/>
</g>
<!-- github.com/shouldsee -->
<g id="node23" class="node"><title>github.com/shouldsee</title>
<g id="a_node23"><a xlink:href="https://github.com/shouldsee" xlink:title="github.com/shouldsee">
<ellipse fill="none" stroke="black" cx="483.16" cy="-126" rx="112.38" ry="18"/>
<text text-anchor="middle" x="483.16" y="-122.3" font-family="Times,serif" font-size="14.00">github.com/shouldsee</text>
</a>
</g>
</g>
<!-- github.com/cancerit/cgpBigWig&#45;&#45;github.com/shouldsee -->
<g id="edge34" class="edge"><title>github.com/cancerit/cgpBigWig&#45;&#45;github.com/shouldsee</title>
<path fill="none" stroke="black" d="M176.122,-296.854C206.917,-262.907 278.424,-189.901 354.472,-153 367.926,-146.472 382.93,-141.515 397.79,-137.753"/>
</g>
<!-- github.com/igvteam/igv&#45;jupyter -->
<g id="node3" class="node"><title>github.com/igvteam/igv&#45;jupyter</title>
<g id="a_node3"><a xlink:href="https://github.com/igvteam/igv-jupyter" xlink:title="github.com/igvteam/igv&#45;jupyter">
<ellipse fill="none" stroke="black" cx="903.276" cy="-585" rx="157.072" ry="18"/>
<text text-anchor="middle" x="903.276" y="-581.3" font-family="Times,serif" font-size="14.00">github.com/igvteam/igv&#45;jupyter</text>
</a>
</g>
</g>
<!-- github.com/dpryan79&#45;&#45;github.com/igvteam/igv&#45;jupyter -->
<g id="edge2" class="edge"><title>github.com/dpryan79&#45;&#45;github.com/igvteam/igv&#45;jupyter</title>
<path fill="none" stroke="black" d="M586.176,-605.412C640.205,-601.923 707.299,-597.591 765.755,-593.816"/>
</g>
<!-- github.com/eBay/tsv&#45;utils -->
<g id="node5" class="node"><title>github.com/eBay/tsv&#45;utils</title>
<g id="a_node5"><a xlink:href="https://github.com/eBay/tsv-utils" xlink:title="github.com/eBay/tsv&#45;utils">
<ellipse fill="none" stroke="black" cx="903.276" cy="-450" rx="129.977" ry="18"/>
<text text-anchor="middle" x="903.276" y="-446.3" font-family="Times,serif" font-size="14.00">github.com/eBay/tsv&#45;utils</text>
</a>
</g>
</g>
<!-- github.com/brentp&#45;&#45;github.com/eBay/tsv&#45;utils -->
<g id="edge4" class="edge"><title>github.com/brentp&#45;&#45;github.com/eBay/tsv&#45;utils</title>
<path fill="none" stroke="black" d="M569.639,-350.494C584.546,-354.575 599.282,-360.483 611.849,-369 635.727,-385.182 623.172,-408.065 647.849,-423 689.27,-448.07 741.544,-456.686 787.919,-458.315"/>
</g>
<!-- github.com/dnbaker/dashing -->
<g id="node6" class="node"><title>github.com/dnbaker/dashing</title>
<g id="a_node6"><a xlink:href="https://github.com/dnbaker/dashing" xlink:title="github.com/dnbaker/dashing">
<ellipse fill="none" stroke="black" cx="903.276" cy="-396" rx="144.075" ry="18"/>
<text text-anchor="middle" x="903.276" y="-392.3" font-family="Times,serif" font-size="14.00">github.com/dnbaker/dashing</text>
</a>
</g>
</g>
<!-- github.com/brentp&#45;&#45;github.com/dnbaker/dashing -->
<g id="edge5" class="edge"><title>github.com/brentp&#45;&#45;github.com/dnbaker/dashing</title>
<path fill="none" stroke="black" d="M554.123,-354.453C583.074,-359.368 617.024,-364.826 647.849,-369 693.407,-375.169 743.715,-380.764 787.485,-385.239"/>
</g>
<!-- github.com/firmai/pandapy -->
<g id="node7" class="node"><title>github.com/firmai/pandapy</title>
<g id="a_node7"><a xlink:href="https://github.com/firmai/pandapy" xlink:title="github.com/firmai/pandapy">
<ellipse fill="none" stroke="black" cx="903.276" cy="-342" rx="135.676" ry="18"/>
<text text-anchor="middle" x="903.276" y="-338.3" font-family="Times,serif" font-size="14.00">github.com/firmai/pandapy</text>
</a>
</g>
</g>
<!-- github.com/brentp&#45;&#45;github.com/firmai/pandapy -->
<g id="edge6" class="edge"><title>github.com/brentp&#45;&#45;github.com/firmai/pandapy</title>
<path fill="none" stroke="black" d="M580.872,-342C636.229,-342 706.536,-342 767.269,-342"/>
</g>
<!-- github.com/telatin/covtobed -->
<g id="node8" class="node"><title>github.com/telatin/covtobed</title>
<g id="a_node8"><a xlink:href="https://github.com/telatin/covtobed" xlink:title="github.com/telatin/covtobed">
<ellipse fill="none" stroke="black" cx="903.276" cy="-180" rx="141.875" ry="18"/>
<text text-anchor="middle" x="903.276" y="-176.3" font-family="Times,serif" font-size="14.00">github.com/telatin/covtobed</text>
</a>
</g>
</g>
<!-- github.com/brentp&#45;&#45;github.com/telatin/covtobed -->
<g id="edge7" class="edge"><title>github.com/brentp&#45;&#45;github.com/telatin/covtobed</title>
<path fill="none" stroke="black" d="M573.969,-335.412C587.85,-331.07 601.115,-324.581 611.849,-315 649.595,-281.307 608.423,-238.712 647.849,-207 691.893,-171.573 755.015,-164.695 807.366,-166.736"/>
</g>
<!-- github.com/XiaoTaoWang&#45;&#45;github.com/firmai/pandapy -->
<g id="edge11" class="edge"><title>github.com/XiaoTaoWang&#45;&#45;github.com/firmai/pandapy</title>
<path fill="none" stroke="black" d="M563.947,-302.109C590.58,-306.565 620.449,-311.29 647.849,-315 694.948,-321.378 747.123,-327.141 791.903,-331.689"/>
</g>
<!-- github.com/cmdcolin/awesome&#45;genome&#45;visualization -->
<g id="node10" class="node"><title>github.com/cmdcolin/awesome&#45;genome&#45;visualization</title>
<g id="a_node10"><a xlink:href="https://github.com/cmdcolin/awesome-genome-visualization" xlink:title="github.com/cmdcolin/awesome&#45;genome&#45;visualization">
<ellipse fill="none" stroke="black" cx="903.276" cy="-288" rx="255.355" ry="18"/>
<text text-anchor="middle" x="903.276" y="-284.3" font-family="Times,serif" font-size="14.00">github.com/cmdcolin/awesome&#45;genome&#45;visualization</text>
</a>
</g>
</g>
<!-- github.com/XiaoTaoWang&#45;&#45;github.com/cmdcolin/awesome&#45;genome&#45;visualization -->
<g id="edge9" class="edge"><title>github.com/XiaoTaoWang&#45;&#45;github.com/cmdcolin/awesome&#45;genome&#45;visualization</title>
<path fill="none" stroke="black" d="M611.881,-288C623.528,-288 635.575,-288 647.841,-288"/>
</g>
<!-- github.com/berenslab/rna&#45;seq&#45;tsne -->
<g id="node11" class="node"><title>github.com/berenslab/rna&#45;seq&#45;tsne</title>
<g id="a_node11"><a xlink:href="https://github.com/berenslab/rna-seq-tsne" xlink:title="github.com/berenslab/rna&#45;seq&#45;tsne">
<ellipse fill="none" stroke="black" cx="903.276" cy="-234" rx="172.769" ry="18"/>
<text text-anchor="middle" x="903.276" y="-230.3" font-family="Times,serif" font-size="14.00">github.com/berenslab/rna&#45;seq&#45;tsne</text>
</a>
</g>
</g>
<!-- github.com/XiaoTaoWang&#45;&#45;github.com/berenslab/rna&#45;seq&#45;tsne -->
<g id="edge10" class="edge"><title>github.com/XiaoTaoWang&#45;&#45;github.com/berenslab/rna&#45;seq&#45;tsne</title>
<path fill="none" stroke="black" d="M563.947,-273.891C590.58,-269.435 620.449,-264.71 647.849,-261 689.005,-255.427 734.038,-250.323 774.625,-246.089"/>
</g>
<!-- github.com/CSSEGISandData/COVID&#45;19 -->
<g id="node12" class="node"><title>github.com/CSSEGISandData/COVID&#45;19</title>
<g id="a_node12"><a xlink:href="https://github.com/CSSEGISandData/COVID-19" xlink:title="github.com/CSSEGISandData/COVID&#45;19">
<ellipse fill="none" stroke="black" cx="903.276" cy="-126" rx="198.465" ry="18"/>
<text text-anchor="middle" x="903.276" y="-122.3" font-family="Times,serif" font-size="14.00">github.com/CSSEGISandData/COVID&#45;19</text>
</a>
</g>
</g>
<!-- github.com/XiaoTaoWang&#45;&#45;github.com/CSSEGISandData/COVID&#45;19 -->
<g id="edge12" class="edge"><title>github.com/XiaoTaoWang&#45;&#45;github.com/CSSEGISandData/COVID&#45;19</title>
<path fill="none" stroke="black" d="M585.897,-277.047C595.364,-273.027 604.242,-267.79 611.849,-261 649.595,-227.307 608.423,-184.712 647.849,-153 665.415,-138.871 686.015,-129.283 707.756,-122.991"/>
</g>
<!-- github.com/esebesty&#45;&#45;github.com/eBay/tsv&#45;utils -->
<g id="edge14" class="edge"><title>github.com/esebesty&#45;&#45;github.com/eBay/tsv&#45;utils</title>
<path fill="none" stroke="black" d="M568.772,-493.072C637.973,-484.135 735.776,-471.504 807.579,-462.23"/>
</g>
<!-- github.com/fcliquet&#45;&#45;github.com/igvteam/igv&#45;jupyter -->
<g id="edge16" class="edge"><title>github.com/fcliquet&#45;&#45;github.com/igvteam/igv&#45;jupyter</title>
<path fill="none" stroke="black" d="M579.299,-564.144C634.484,-567.707 704.914,-572.255 765.914,-576.194"/>
</g>
<!-- github.com/xiongxu&#45;&#45;github.com/telatin/covtobed -->
<g id="edge20" class="edge"><title>github.com/xiongxu&#45;&#45;github.com/telatin/covtobed</title>
<path fill="none" stroke="black" d="M585.908,-180C638.604,-180 703.781,-180 761.256,-180"/>
</g>
<!-- github.com/xiongxu&#45;&#45;github.com/CSSEGISandData/COVID&#45;19 -->
<g id="edge18" class="edge"><title>github.com/xiongxu&#45;&#45;github.com/CSSEGISandData/COVID&#45;19</title>
<path fill="none" stroke="black" d="M556.141,-167.205C584.645,-162.38 617.737,-157.078 647.849,-153 686.034,-147.829 727.556,-143.062 765.769,-139.019"/>
</g>
<!-- github.com/imgag/ClinCNV -->
<g id="node16" class="node"><title>github.com/imgag/ClinCNV</title>
<g id="a_node16"><a xlink:href="https://github.com/imgag/ClinCNV" xlink:title="github.com/imgag/ClinCNV">
<ellipse fill="none" stroke="black" cx="903.276" cy="-18" rx="139.976" ry="18"/>
<text text-anchor="middle" x="903.276" y="-14.3" font-family="Times,serif" font-size="14.00">github.com/imgag/ClinCNV</text>
</a>
</g>
</g>
<!-- github.com/xiongxu&#45;&#45;github.com/imgag/ClinCNV -->
<g id="edge19" class="edge"><title>github.com/xiongxu&#45;&#45;github.com/imgag/ClinCNV</title>
<path fill="none" stroke="black" d="M576.91,-172.456C589.717,-168.135 601.876,-161.902 611.849,-153 649.595,-119.307 608.423,-76.7117 647.849,-45 692.153,-9.36451 755.759,-2.61451 808.29,-4.77338"/>
</g>
<!-- github.com/sbamin&#45;&#45;github.com/eBay/tsv&#45;utils -->
<g id="edge22" class="edge"><title>github.com/sbamin&#45;&#45;github.com/eBay/tsv&#45;utils</title>
<path fill="none" stroke="black" d="M583.513,-450C640.269,-450 712.078,-450 773.165,-450"/>
</g>
<!-- github.com/zx8754&#45;&#45;github.com/imgag/ClinCNV -->
<g id="edge24" class="edge"><title>github.com/zx8754&#45;&#45;github.com/imgag/ClinCNV</title>
<path fill="none" stroke="black" d="M583.513,-18C637.25,-18 704.481,-18 763.33,-18"/>
</g>
<!-- github.com/chapmanb&#45;&#45;github.com/dnbaker/dashing -->
<g id="edge26" class="edge"><title>github.com/chapmanb&#45;&#45;github.com/dnbaker/dashing</title>
<path fill="none" stroke="black" d="M597.584,-396C647.281,-396 706.169,-396 758.865,-396"/>
</g>
<!-- github.com/mdozmorov&#45;&#45;github.com/telatin/covtobed -->
<g id="edge31" class="edge"><title>github.com/mdozmorov&#45;&#45;github.com/telatin/covtobed</title>
<path fill="none" stroke="black" d="M561.46,-220.308C588.711,-215.731 619.593,-210.826 647.849,-207 693.847,-200.771 744.688,-195.128 788.752,-190.631"/>
</g>
<!-- github.com/mdozmorov&#45;&#45;github.com/cmdcolin/awesome&#45;genome&#45;visualization -->
<g id="edge29" class="edge"><title>github.com/mdozmorov&#45;&#45;github.com/cmdcolin/awesome&#45;genome&#45;visualization</title>
<path fill="none" stroke="black" d="M561.46,-247.692C588.711,-252.269 619.593,-257.174 647.849,-261 681.412,-265.545 717.554,-269.778 751.76,-273.481"/>
</g>
<!-- github.com/mdozmorov&#45;&#45;github.com/berenslab/rna&#45;seq&#45;tsne -->
<g id="edge30" class="edge"><title>github.com/mdozmorov&#45;&#45;github.com/berenslab/rna&#45;seq&#45;tsne</title>
<path fill="none" stroke="black" d="M603.416,-234C642.881,-234 687.617,-234 730.233,-234"/>
</g>
<!-- github.com/gaospecial/ggVennDiagram -->
<g id="node21" class="node"><title>github.com/gaospecial/ggVennDiagram</title>
<g id="a_node21"><a xlink:href="https://github.com/gaospecial/ggVennDiagram" xlink:title="github.com/gaospecial/ggVennDiagram">
<ellipse fill="none" stroke="black" cx="903.276" cy="-72" rx="193.066" ry="18"/>
<text text-anchor="middle" x="903.276" y="-68.3" font-family="Times,serif" font-size="14.00">github.com/gaospecial/ggVennDiagram</text>
</a>
</g>
</g>
<!-- github.com/mdozmorov&#45;&#45;github.com/gaospecial/ggVennDiagram -->
<g id="edge28" class="edge"><title>github.com/mdozmorov&#45;&#45;github.com/gaospecial/ggVennDiagram</title>
<path fill="none" stroke="black" d="M583.678,-223.963C593.976,-219.832 603.651,-214.318 611.849,-207 649.595,-173.307 608.423,-130.712 647.849,-99 681.769,-71.7166 727.004,-61.3653 769.92,-58.9808"/>
</g>
<!-- github.com/itsvenu&#45;&#45;github.com/gaospecial/ggVennDiagram -->
<g id="edge33" class="edge"><title>github.com/itsvenu&#45;&#45;github.com/gaospecial/ggVennDiagram</title>
<path fill="none" stroke="black" d="M584.044,-72C621.97,-72 666.56,-72 710.16,-72"/>
</g>
<!-- github.com/shouldsee&#45;&#45;github.com/CSSEGISandData/COVID&#45;19 -->
<g id="edge35" class="edge"><title>github.com/shouldsee&#45;&#45;github.com/CSSEGISandData/COVID&#45;19</title>
<path fill="none" stroke="black" d="M595.658,-126C629.285,-126 667.252,-126 704.725,-126"/>
</g>
</g>
</svg>
