<?xml version="1.0" encoding="UTF-8" standalone="no"?>
<!DOCTYPE svg PUBLIC "-//W3C//DTD SVG 1.1//EN"
 "http://www.w3.org/Graphics/SVG/1.1/DTD/svg11.dtd">
<!-- Generated by graphviz version 2.38.0 (20140413.2041)
 -->
<!-- Title: G Pages: 1 -->
<svg width="1229pt" height="557pt"
 viewBox="0.00 0.00 1229.10 557.00" xmlns="http://www.w3.org/2000/svg" xmlns:xlink="http://www.w3.org/1999/xlink">
<g id="graph0" class="graph" transform="scale(1 1) rotate(0) translate(4 553)">
<title>G</title>
<polygon fill="white" stroke="none" points="-4,4 -4,-553 1225.1,-553 1225.1,4 -4,4"/>
<!-- github.com/cancerit/cgpBigWig -->
<g id="node1" class="node"><title>github.com/cancerit/cgpBigWig</title>
<g id="a_node1"><a xlink:href="https://github.com/cancerit/cgpBigWig" xlink:title="github.com/cancerit/cgpBigWig">
<ellipse fill="none" stroke="black" cx="159.236" cy="-261" rx="159.472" ry="18"/>
<text text-anchor="middle" x="159.236" y="-257.3" font-family="Times,serif" font-size="14.00">github.com/cancerit/cgpBigWig</text>
</a>
</g>
</g>
<!-- github.com/brentp -->
<g id="node2" class="node"><title>github.com/brentp</title>
<g id="a_node2"><a xlink:href="https://github.com/brentp" xlink:title="github.com/brentp">
<ellipse fill="none" stroke="black" cx="505.908" cy="-410" rx="97.4827" ry="18"/>
<text text-anchor="middle" x="505.908" y="-406.3" font-family="Times,serif" font-size="14.00">github.com/brentp</text>
</a>
</g>
</g>
<!-- github.com/cancerit/cgpBigWig&#45;&#45;github.com/brentp -->
<g id="edge1" class="edge"><title>github.com/cancerit/cgpBigWig&#45;&#45;github.com/brentp</title>
<path fill="none" stroke="black" d="M187.172,-278.744C223.746,-302.179 291.759,-343.458 354.472,-369 382.3,-380.334 414.279,-389.547 441.576,-396.348"/>
</g>
<!-- github.com/XiaoTaoWang -->
<g id="node6" class="node"><title>github.com/XiaoTaoWang</title>
<g id="a_node6"><a xlink:href="https://github.com/XiaoTaoWang" xlink:title="github.com/XiaoTaoWang">
<ellipse fill="none" stroke="black" cx="505.908" cy="-342" rx="128.877" ry="18"/>
<text text-anchor="middle" x="505.908" y="-338.3" font-family="Times,serif" font-size="14.00">github.com/XiaoTaoWang</text>
</a>
</g>
</g>
<!-- github.com/cancerit/cgpBigWig&#45;&#45;github.com/XiaoTaoWang -->
<g id="edge5" class="edge"><title>github.com/cancerit/cgpBigWig&#45;&#45;github.com/XiaoTaoWang</title>
<path fill="none" stroke="black" d="M215.562,-277.869C254.236,-289.293 307.211,-304.214 354.472,-315 375.944,-319.9 399.306,-324.461 421.076,-328.388"/>
</g>
<!-- github.com/marcosdecarvalho -->
<g id="node12" class="node"><title>github.com/marcosdecarvalho</title>
<g id="a_node12"><a xlink:href="https://github.com/marcosdecarvalho" xlink:title="github.com/marcosdecarvalho">
<ellipse fill="none" stroke="black" cx="505.908" cy="-72" rx="151.373" ry="18"/>
<text text-anchor="middle" x="505.908" y="-68.3" font-family="Times,serif" font-size="14.00">github.com/marcosdecarvalho</text>
</a>
</g>
</g>
<!-- github.com/cancerit/cgpBigWig&#45;&#45;github.com/marcosdecarvalho -->
<g id="edge12" class="edge"><title>github.com/cancerit/cgpBigWig&#45;&#45;github.com/marcosdecarvalho</title>
<path fill="none" stroke="black" d="M175.781,-242.903C206.27,-208.706 277.666,-134.819 354.472,-99 367.578,-92.8878 381.922,-88.1544 396.383,-84.4897"/>
</g>
<!-- github.com/esebesty -->
<g id="node14" class="node"><title>github.com/esebesty</title>
<g id="a_node14"><a xlink:href="https://github.com/esebesty" xlink:title="github.com/esebesty">
<ellipse fill="none" stroke="black" cx="505.908" cy="-531" rx="107.482" ry="18"/>
<text text-anchor="middle" x="505.908" y="-527.3" font-family="Times,serif" font-size="14.00">github.com/esebesty</text>
</a>
</g>
</g>
<!-- github.com/cancerit/cgpBigWig&#45;&#45;github.com/esebesty -->
<g id="edge14" class="edge"><title>github.com/cancerit/cgpBigWig&#45;&#45;github.com/esebesty</title>
<path fill="none" stroke="black" d="M168.796,-279.009C191.685,-325.014 259.107,-447.221 354.472,-504 370.317,-513.434 388.647,-519.736 406.944,-523.911"/>
</g>
<!-- github.com/jsmedmar -->
<g id="node15" class="node"><title>github.com/jsmedmar</title>
<g id="a_node15"><a xlink:href="https://github.com/jsmedmar" xlink:title="github.com/jsmedmar">
<ellipse fill="none" stroke="black" cx="505.908" cy="-18" rx="112.38" ry="18"/>
<text text-anchor="middle" x="505.908" y="-14.3" font-family="Times,serif" font-size="14.00">github.com/jsmedmar</text>
</a>
</g>
</g>
<!-- github.com/cancerit/cgpBigWig&#45;&#45;github.com/jsmedmar -->
<g id="edge16" class="edge"><title>github.com/cancerit/cgpBigWig&#45;&#45;github.com/jsmedmar</title>
<path fill="none" stroke="black" d="M170.636,-242.837C195.986,-200.391 265.463,-94.5535 354.472,-45 370.005,-36.3522 387.712,-30.3815 405.391,-26.2791"/>
</g>
<!-- github.com/xiongxu -->
<g id="node16" class="node"><title>github.com/xiongxu</title>
<g id="a_node16"><a xlink:href="https://github.com/xiongxu" xlink:title="github.com/xiongxu">
<ellipse fill="none" stroke="black" cx="505.908" cy="-234" rx="102.882" ry="18"/>
<text text-anchor="middle" x="505.908" y="-230.3" font-family="Times,serif" font-size="14.00">github.com/xiongxu</text>
</a>
</g>
</g>
<!-- github.com/cancerit/cgpBigWig&#45;&#45;github.com/xiongxu -->
<g id="edge18" class="edge"><title>github.com/cancerit/cgpBigWig&#45;&#45;github.com/xiongxu</title>
<path fill="none" stroke="black" d="M290.542,-250.792C330.861,-247.634 374.449,-244.22 411.725,-241.299"/>
</g>
<!-- github.com/sbamin -->
<g id="node17" class="node"><title>github.com/sbamin</title>
<g id="a_node17"><a xlink:href="https://github.com/sbamin" xlink:title="github.com/sbamin">
<ellipse fill="none" stroke="black" cx="505.908" cy="-477" rx="100.182" ry="18"/>
<text text-anchor="middle" x="505.908" y="-473.3" font-family="Times,serif" font-size="14.00">github.com/sbamin</text>
</a>
</g>
</g>
<!-- github.com/cancerit/cgpBigWig&#45;&#45;github.com/sbamin -->
<g id="edge22" class="edge"><title>github.com/cancerit/cgpBigWig&#45;&#45;github.com/sbamin</title>
<path fill="none" stroke="black" d="M174.786,-278.996C204.622,-314.681 276.515,-394.611 354.472,-437 378.095,-449.845 406.081,-458.748 431.469,-464.832"/>
</g>
<!-- github.com/maoyibo -->
<g id="node18" class="node"><title>github.com/maoyibo</title>
<g id="a_node18"><a xlink:href="https://github.com/maoyibo" xlink:title="github.com/maoyibo">
<ellipse fill="none" stroke="black" cx="505.908" cy="-126" rx="105.082" ry="18"/>
<text text-anchor="middle" x="505.908" y="-122.3" font-family="Times,serif" font-size="14.00">github.com/maoyibo</text>
</a>
</g>
</g>
<!-- github.com/cancerit/cgpBigWig&#45;&#45;github.com/maoyibo -->
<g id="edge25" class="edge"><title>github.com/cancerit/cgpBigWig&#45;&#45;github.com/maoyibo</title>
<path fill="none" stroke="black" d="M185.934,-243.046C221.917,-218.785 290.146,-175.937 354.472,-153 374.966,-145.692 397.766,-140.296 419.292,-136.336"/>
</g>
<!-- github.com/mdozmorov -->
<g id="node20" class="node"><title>github.com/mdozmorov</title>
<g id="a_node20"><a xlink:href="https://github.com/mdozmorov" xlink:title="github.com/mdozmorov">
<ellipse fill="none" stroke="black" cx="505.908" cy="-288" rx="120.479" ry="18"/>
<text text-anchor="middle" x="505.908" y="-284.3" font-family="Times,serif" font-size="14.00">github.com/mdozmorov</text>
</a>
</g>
</g>
<!-- github.com/cancerit/cgpBigWig&#45;&#45;github.com/mdozmorov -->
<g id="edge27" class="edge"><title>github.com/cancerit/cgpBigWig&#45;&#45;github.com/mdozmorov</title>
<path fill="none" stroke="black" d="M290.542,-271.208C326.381,-274.015 364.803,-277.025 399.079,-279.71"/>
</g>
<!-- github.com/shouldsee -->
<g id="node21" class="node"><title>github.com/shouldsee</title>
<g id="a_node21"><a xlink:href="https://github.com/shouldsee" xlink:title="github.com/shouldsee">
<ellipse fill="none" stroke="black" cx="505.908" cy="-180" rx="112.38" ry="18"/>
<text text-anchor="middle" x="505.908" y="-176.3" font-family="Times,serif" font-size="14.00">github.com/shouldsee</text>
</a>
</g>
</g>
<!-- github.com/cancerit/cgpBigWig&#45;&#45;github.com/shouldsee -->
<g id="edge31" class="edge"><title>github.com/cancerit/cgpBigWig&#45;&#45;github.com/shouldsee</title>
<path fill="none" stroke="black" d="M215.562,-244.131C254.236,-232.707 307.211,-217.786 354.472,-207 377.625,-201.716 402.977,-196.827 426.159,-192.702"/>
</g>
<!-- github.com/eBay/tsv&#45;utils -->
<g id="node3" class="node"><title>github.com/eBay/tsv&#45;utils</title>
<g id="a_node3"><a xlink:href="https://github.com/eBay/tsv-utils" xlink:title="github.com/eBay/tsv&#45;utils">
<ellipse fill="none" stroke="black" cx="957.221" cy="-531" rx="129.977" ry="18"/>
<text text-anchor="middle" x="957.221" y="-527.3" font-family="Times,serif" font-size="14.00">github.com/eBay/tsv&#45;utils</text>
</a>
</g>
</g>
<!-- github.com/brentp&#45;&#45;github.com/eBay/tsv&#45;utils -->
<g id="edge2" class="edge"><title>github.com/brentp&#45;&#45;github.com/eBay/tsv&#45;utils</title>
<path fill="none" stroke="black" d="M586.965,-420.11C611.194,-425.99 636.799,-435.291 657.345,-450 680.798,-466.791 668.643,-489.106 693.345,-504 738.43,-531.183 795.914,-539.422 845.623,-540.238"/>
</g>
<!-- github.com/pmelsted/dbg -->
<g id="node4" class="node"><title>github.com/pmelsted/dbg</title>
<g id="a_node4"><a xlink:href="https://github.com/pmelsted/dbg" xlink:title="github.com/pmelsted/dbg">
<ellipse fill="none" stroke="black" cx="957.221" cy="-423" rx="129.977" ry="18"/>
<text text-anchor="middle" x="957.221" y="-419.3" font-family="Times,serif" font-size="14.00">github.com/pmelsted/dbg</text>
</a>
</g>
</g>
<!-- github.com/brentp&#45;&#45;github.com/pmelsted/dbg -->
<g id="edge3" class="edge"><title>github.com/brentp&#45;&#45;github.com/pmelsted/dbg</title>
<path fill="none" stroke="black" d="M602.471,-412.765C668.691,-414.681 757.563,-417.252 829.661,-419.338"/>
</g>
<!-- github.com/telatin/covtobed -->
<g id="node5" class="node"><title>github.com/telatin/covtobed</title>
<g id="a_node5"><a xlink:href="https://github.com/telatin/covtobed" xlink:title="github.com/telatin/covtobed">
<ellipse fill="none" stroke="black" cx="957.221" cy="-261" rx="141.875" ry="18"/>
<text text-anchor="middle" x="957.221" y="-257.3" font-family="Times,serif" font-size="14.00">github.com/telatin/covtobed</text>
</a>
</g>
</g>
<!-- github.com/brentp&#45;&#45;github.com/telatin/covtobed -->
<g id="edge4" class="edge"><title>github.com/brentp&#45;&#45;github.com/telatin/covtobed</title>
<path fill="none" stroke="black" d="M590.537,-400.855C614.241,-394.863 638.653,-385.045 657.345,-369 687.238,-343.341 661.453,-311.129 693.345,-288 739.305,-254.668 802.258,-247.252 855.036,-248.486"/>
</g>
<!-- github.com/XiaoTaoWang&#45;&#45;github.com/pmelsted/dbg -->
<g id="edge7" class="edge"><title>github.com/XiaoTaoWang&#45;&#45;github.com/pmelsted/dbg</title>
<path fill="none" stroke="black" d="M569.083,-357.743C596.319,-364.948 628.567,-373.899 657.345,-383 673.564,-388.13 676.76,-392.214 693.345,-396 739.079,-406.441 790.216,-412.848 835.145,-416.779"/>
</g>
<!-- github.com/caleblareau/immune_cell_signature_genes -->
<g id="node7" class="node"><title>github.com/caleblareau/immune_cell_signature_genes</title>
<g id="a_node7"><a xlink:href="https://github.com/caleblareau/immune_cell_signature_genes" xlink:title="github.com/caleblareau/immune_cell_signature_genes">
<ellipse fill="none" stroke="black" cx="957.221" cy="-477" rx="263.753" ry="18"/>
<text text-anchor="middle" x="957.221" y="-473.3" font-family="Times,serif" font-size="14.00">github.com/caleblareau/immune_cell_signature_genes</text>
</a>
</g>
</g>
<!-- github.com/XiaoTaoWang&#45;&#45;github.com/caleblareau/immune_cell_signature_genes -->
<g id="edge6" class="edge"><title>github.com/XiaoTaoWang&#45;&#45;github.com/caleblareau/immune_cell_signature_genes</title>
<path fill="none" stroke="black" d="M598.813,-354.49C619.612,-360.574 640.502,-369.604 657.345,-383 683.801,-404.042 665.257,-431.191 693.345,-450 704.114,-457.211 715.708,-463.16 727.812,-468.037"/>
</g>
<!-- github.com/berenslab/rna&#45;seq&#45;tsne -->
<g id="node8" class="node"><title>github.com/berenslab/rna&#45;seq&#45;tsne</title>
<g id="a_node8"><a xlink:href="https://github.com/berenslab/rna-seq-tsne" xlink:title="github.com/berenslab/rna&#45;seq&#45;tsne">
<ellipse fill="none" stroke="black" cx="957.221" cy="-369" rx="172.769" ry="18"/>
<text text-anchor="middle" x="957.221" y="-365.3" font-family="Times,serif" font-size="14.00">github.com/berenslab/rna&#45;seq&#45;tsne</text>
</a>
</g>
</g>
<!-- github.com/XiaoTaoWang&#45;&#45;github.com/berenslab/rna&#45;seq&#45;tsne -->
<g id="edge8" class="edge"><title>github.com/XiaoTaoWang&#45;&#45;github.com/berenslab/rna&#45;seq&#45;tsne</title>
<path fill="none" stroke="black" d="M624.373,-349.059C680.276,-352.418 747.746,-356.472 807.21,-360.046"/>
</g>
<!-- github.com/cellgeni/sceasy -->
<g id="node9" class="node"><title>github.com/cellgeni/sceasy</title>
<g id="a_node9"><a xlink:href="https://github.com/cellgeni/sceasy" xlink:title="github.com/cellgeni/sceasy">
<ellipse fill="none" stroke="black" cx="957.221" cy="-315" rx="137.276" ry="18"/>
<text text-anchor="middle" x="957.221" y="-311.3" font-family="Times,serif" font-size="14.00">github.com/cellgeni/sceasy</text>
</a>
</g>
</g>
<!-- github.com/XiaoTaoWang&#45;&#45;github.com/cellgeni/sceasy -->
<g id="edge9" class="edge"><title>github.com/XiaoTaoWang&#45;&#45;github.com/cellgeni/sceasy</title>
<path fill="none" stroke="black" d="M624.373,-334.941C688.207,-331.105 767.121,-326.363 831.978,-322.466"/>
</g>
<!-- github.com/CSSEGISandData/COVID&#45;19 -->
<g id="node10" class="node"><title>github.com/CSSEGISandData/COVID&#45;19</title>
<g id="a_node10"><a xlink:href="https://github.com/CSSEGISandData/COVID-19" xlink:title="github.com/CSSEGISandData/COVID&#45;19">
<ellipse fill="none" stroke="black" cx="957.221" cy="-153" rx="198.465" ry="18"/>
<text text-anchor="middle" x="957.221" y="-149.3" font-family="Times,serif" font-size="14.00">github.com/CSSEGISandData/COVID&#45;19</text>
</a>
</g>
</g>
<!-- github.com/XiaoTaoWang&#45;&#45;github.com/CSSEGISandData/COVID&#45;19 -->
<g id="edge10" class="edge"><title>github.com/XiaoTaoWang&#45;&#45;github.com/CSSEGISandData/COVID&#45;19</title>
<path fill="none" stroke="black" d="M624.154,-334.858C636.361,-330.228 647.777,-323.804 657.345,-315 703.038,-272.951 646.103,-220.301 693.345,-180 736.538,-143.153 799.4,-135.621 852.821,-137.671"/>
</g>
<!-- github.com/shilpagarg/DipAsm -->
<g id="node11" class="node"><title>github.com/shilpagarg/DipAsm</title>
<g id="a_node11"><a xlink:href="https://github.com/shilpagarg/DipAsm" xlink:title="github.com/shilpagarg/DipAsm">
<ellipse fill="none" stroke="black" cx="957.221" cy="-207" rx="155.173" ry="18"/>
<text text-anchor="middle" x="957.221" y="-203.3" font-family="Times,serif" font-size="14.00">github.com/shilpagarg/DipAsm</text>
</a>
</g>
</g>
<!-- github.com/XiaoTaoWang&#45;&#45;github.com/shilpagarg/DipAsm -->
<g id="edge11" class="edge"><title>github.com/XiaoTaoWang&#45;&#45;github.com/shilpagarg/DipAsm</title>
<path fill="none" stroke="black" d="M621.327,-333.854C634.32,-329.447 646.696,-323.351 657.345,-315 688.344,-290.688 661.453,-257.129 693.345,-234 736.798,-202.486 795.441,-194.138 846.314,-194.364"/>
</g>
<!-- github.com/vuejs/vue -->
<g id="node13" class="node"><title>github.com/vuejs/vue</title>
<g id="a_node13"><a xlink:href="https://github.com/vuejs/vue" xlink:title="github.com/vuejs/vue">
<ellipse fill="none" stroke="black" cx="957.221" cy="-45" rx="110.48" ry="18"/>
<text text-anchor="middle" x="957.221" y="-41.3" font-family="Times,serif" font-size="14.00">github.com/vuejs/vue</text>
</a>
</g>
</g>
<!-- github.com/marcosdecarvalho&#45;&#45;github.com/vuejs/vue -->
<g id="edge13" class="edge"><title>github.com/marcosdecarvalho&#45;&#45;github.com/vuejs/vue</title>
<path fill="none" stroke="black" d="M641.413,-63.9174C709.28,-59.8392 790.306,-54.9701 853.159,-51.1932"/>
</g>
<!-- github.com/esebesty&#45;&#45;github.com/eBay/tsv&#45;utils -->
<g id="edge15" class="edge"><title>github.com/esebesty&#45;&#45;github.com/eBay/tsv&#45;utils</title>
<path fill="none" stroke="black" d="M613.389,-531C677.358,-531 759.197,-531 826.871,-531"/>
</g>
<!-- github.com/jsmedmar&#45;&#45;github.com/vuejs/vue -->
<g id="edge17" class="edge"><title>github.com/jsmedmar&#45;&#45;github.com/vuejs/vue</title>
<path fill="none" stroke="black" d="M611.402,-24.2792C684.13,-28.6495 780.664,-34.4504 853.091,-38.8027"/>
</g>
<!-- github.com/xiongxu&#45;&#45;github.com/telatin/covtobed -->
<g id="edge20" class="edge"><title>github.com/xiongxu&#45;&#45;github.com/telatin/covtobed</title>
<path fill="none" stroke="black" d="M603.297,-239.792C669.18,-243.751 757.195,-249.04 828.848,-253.346"/>
</g>
<!-- github.com/xiongxu&#45;&#45;github.com/CSSEGISandData/COVID&#45;19 -->
<g id="edge19" class="edge"><title>github.com/xiongxu&#45;&#45;github.com/CSSEGISandData/COVID&#45;19</title>
<path fill="none" stroke="black" d="M595.644,-225.125C616.44,-221.14 638.124,-215.366 657.345,-207 675.683,-199.018 674.72,-187.287 693.345,-180 717.805,-170.43 744.472,-163.791 771.135,-159.249"/>
</g>
<!-- github.com/xiongxu&#45;&#45;github.com/shilpagarg/DipAsm -->
<g id="edge21" class="edge"><title>github.com/xiongxu&#45;&#45;github.com/shilpagarg/DipAsm</title>
<path fill="none" stroke="black" d="M603.297,-228.208C666.214,-224.427 749.317,-219.433 819.076,-215.241"/>
</g>
<!-- github.com/sbamin&#45;&#45;github.com/eBay/tsv&#45;utils -->
<g id="edge23" class="edge"><title>github.com/sbamin&#45;&#45;github.com/eBay/tsv&#45;utils</title>
<path fill="none" stroke="black" d="M582.556,-488.682C616.404,-493.721 656.83,-499.483 693.345,-504 744.454,-510.323 801.284,-516.292 848.991,-521.002"/>
</g>
<!-- github.com/sbamin&#45;&#45;github.com/caleblareau/immune_cell_signature_genes -->
<g id="edge24" class="edge"><title>github.com/sbamin&#45;&#45;github.com/caleblareau/immune_cell_signature_genes</title>
<path fill="none" stroke="black" d="M606.068,-477C632.428,-477 662.183,-477 692.932,-477"/>
</g>
<!-- github.com/tiangolo/fastapi -->
<g id="node19" class="node"><title>github.com/tiangolo/fastapi</title>
<g id="a_node19"><a xlink:href="https://github.com/tiangolo/fastapi" xlink:title="github.com/tiangolo/fastapi">
<ellipse fill="none" stroke="black" cx="957.221" cy="-99" rx="138.375" ry="18"/>
<text text-anchor="middle" x="957.221" y="-95.3" font-family="Times,serif" font-size="14.00">github.com/tiangolo/fastapi</text>
</a>
</g>
</g>
<!-- github.com/maoyibo&#45;&#45;github.com/tiangolo/fastapi -->
<g id="edge26" class="edge"><title>github.com/maoyibo&#45;&#45;github.com/tiangolo/fastapi</title>
<path fill="none" stroke="black" d="M605.512,-120.075C671.902,-116.085 760.006,-110.791 831.298,-106.507"/>
</g>
<!-- github.com/mdozmorov&#45;&#45;github.com/telatin/covtobed -->
<g id="edge30" class="edge"><title>github.com/mdozmorov&#45;&#45;github.com/telatin/covtobed</title>
<path fill="none" stroke="black" d="M617.686,-281.343C681.611,-277.502 762.259,-272.656 828.803,-268.657"/>
</g>
<!-- github.com/mdozmorov&#45;&#45;github.com/berenslab/rna&#45;seq&#45;tsne -->
<g id="edge28" class="edge"><title>github.com/mdozmorov&#45;&#45;github.com/berenslab/rna&#45;seq&#45;tsne</title>
<path fill="none" stroke="black" d="M603.975,-298.561C622.161,-302.44 640.679,-307.746 657.345,-315 675.683,-322.982 674.72,-334.713 693.345,-342 722.932,-353.575 755.748,-360.864 787.881,-365.338"/>
</g>
<!-- github.com/mdozmorov&#45;&#45;github.com/cellgeni/sceasy -->
<g id="edge29" class="edge"><title>github.com/mdozmorov&#45;&#45;github.com/cellgeni/sceasy</title>
<path fill="none" stroke="black" d="M617.686,-294.657C682.65,-298.561 764.886,-303.502 832.038,-307.538"/>
</g>
<!-- github.com/shouldsee&#45;&#45;github.com/CSSEGISandData/COVID&#45;19 -->
<g id="edge32" class="edge"><title>github.com/shouldsee&#45;&#45;github.com/CSSEGISandData/COVID&#45;19</title>
<path fill="none" stroke="black" d="M611.402,-173.721C664.813,-170.511 731.065,-166.53 791.178,-162.918"/>
</g>
<!-- github.com/shouldsee&#45;&#45;github.com/tiangolo/fastapi -->
<g id="edge33" class="edge"><title>github.com/shouldsee&#45;&#45;github.com/tiangolo/fastapi</title>
<path fill="none" stroke="black" d="M600.396,-170.186C619.72,-166.248 639.584,-160.731 657.345,-153 675.683,-145.018 674.72,-133.287 693.345,-126 732.438,-110.705 777.168,-102.895 818.512,-99.1722"/>
</g>
</g>
</svg>
