<?xml version="1.0" encoding="UTF-8" standalone="no"?>
<!DOCTYPE svg PUBLIC "-//W3C//DTD SVG 1.1//EN"
 "http://www.w3.org/Graphics/SVG/1.1/DTD/svg11.dtd">
<!-- Generated by graphviz version 2.38.0 (20140413.2041)
 -->
<!-- Title: G Pages: 1 -->
<svg width="1979pt" height="1304pt"
 viewBox="0.00 0.00 1979.23 1304.15" xmlns="http://www.w3.org/2000/svg" xmlns:xlink="http://www.w3.org/1999/xlink">
<g id="graph0" class="graph" transform="scale(1 1) rotate(0) translate(965.379 708.698)">
<title>G</title>
<polygon fill="white" stroke="none" points="-965.379,595.451 -965.379,-708.698 1013.85,-708.698 1013.85,595.451 -965.379,595.451"/>
<!-- https_//github.com/hasura/graphqurl -->
<g id="node1" class="node"><title>https_//github.com/hasura/graphqurl</title>
<ellipse fill="none" stroke="black" cx="16.9745" cy="46.5472" rx="182.768" ry="18"/>
<text text-anchor="middle" x="16.9745" y="50.2472" font-family="Times,serif" font-size="14.00">https_//github.com/hasura/graphqurl</text>
</g>
<!-- 0 -->
<g id="node2" class="node"><title>0</title>
<ellipse fill="none" stroke="black" cx="21.996" cy="-103.218" rx="27" ry="18"/>
<text text-anchor="middle" x="21.996" y="-99.5177" font-family="Times,serif" font-size="14.00">0</text>
</g>
<!-- https_//github.com/hasura/graphqurl&#45;&#45;0 -->
<g id="edge1" class="edge"><title>https_//github.com/hasura/graphqurl&#45;&#45;0</title>
<path fill="none" stroke="black" d="M17.5802,28.4821C18.5453,-0.303437 20.4216,-56.2627 21.3882,-85.0885"/>
</g>
<!-- 1 -->
<g id="node4" class="node"><title>1</title>
<ellipse fill="none" stroke="black" cx="172.652" cy="171.843" rx="27" ry="18"/>
<text text-anchor="middle" x="172.652" y="175.543" font-family="Times,serif" font-size="14.00">1</text>
</g>
<!-- https_//github.com/hasura/graphqurl&#45;&#45;1 -->
<g id="edge3" class="edge"><title>https_//github.com/hasura/graphqurl&#45;&#45;1</title>
<path fill="none" stroke="black" d="M39.2793,64.499C70.5551,89.671 126.79,134.931 155.205,157.801"/>
</g>
<!-- 2 -->
<g id="node6" class="node"><title>2</title>
<ellipse fill="none" stroke="black" cx="-127.2" cy="-66.3728" rx="27" ry="18"/>
<text text-anchor="middle" x="-127.2" y="-62.6728" font-family="Times,serif" font-size="14.00">2</text>
</g>
<!-- https_//github.com/hasura/graphqurl&#45;&#45;2 -->
<g id="edge5" class="edge"><title>https_//github.com/hasura/graphqurl&#45;&#45;2</title>
<path fill="none" stroke="black" d="M-5.87042,28.6547C-34.6136,6.14257 -83.364,-32.0396 -109.462,-52.4797"/>
</g>
<!-- 3 -->
<g id="node7" class="node"><title>3</title>
<ellipse fill="none" stroke="black" cx="8.76726" cy="198.96" rx="27" ry="18"/>
<text text-anchor="middle" x="8.76726" y="202.66" font-family="Times,serif" font-size="14.00">3</text>
</g>
<!-- https_//github.com/hasura/graphqurl&#45;&#45;3 -->
<g id="edge7" class="edge"><title>https_//github.com/hasura/graphqurl&#45;&#45;3</title>
<path fill="none" stroke="black" d="M16.0008,64.6294C14.4212,93.9626 11.3184,151.583 9.73969,180.901"/>
</g>
<!-- 4 -->
<g id="node8" class="node"><title>4</title>
<ellipse fill="none" stroke="black" cx="-445.31" cy="560.813" rx="27" ry="18"/>
<text text-anchor="middle" x="-445.31" y="564.513" font-family="Times,serif" font-size="14.00">4</text>
</g>
<!-- https_//github.com/hasura/graphqurl&#45;&#45;4 -->
<g id="edge9" class="edge"><title>https_//github.com/hasura/graphqurl&#45;&#45;4</title>
<path fill="none" stroke="black" d="M0.792587,64.5487C-71.44,144.903 -363.81,470.149 -431.343,545.275"/>
</g>
<!-- 5 -->
<g id="node10" class="node"><title>5</title>
<ellipse fill="none" stroke="black" cx="-65.4676" cy="375.574" rx="27" ry="18"/>
<text text-anchor="middle" x="-65.4676" y="379.274" font-family="Times,serif" font-size="14.00">5</text>
</g>
<!-- https_//github.com/hasura/graphqurl&#45;&#45;5 -->
<g id="edge11" class="edge"><title>https_//github.com/hasura/graphqurl&#45;&#45;5</title>
<path fill="none" stroke="black" d="M12.4246,64.7058C-1.98922,122.231 -46.5376,300.024 -60.9318,357.471"/>
</g>
<!-- 6 -->
<g id="node12" class="node"><title>6</title>
<ellipse fill="none" stroke="black" cx="-146.582" cy="232.714" rx="27" ry="18"/>
<text text-anchor="middle" x="-146.582" y="236.414" font-family="Times,serif" font-size="14.00">6</text>
</g>
<!-- https_//github.com/hasura/graphqurl&#45;&#45;6 -->
<g id="edge13" class="edge"><title>https_//github.com/hasura/graphqurl&#45;&#45;6</title>
<path fill="none" stroke="black" d="M0.994221,64.7366C-31.0777,101.242 -102.786,182.863 -132.876,217.113"/>
</g>
<!-- 7 -->
<g id="node13" class="node"><title>7</title>
<ellipse fill="none" stroke="black" cx="263.241" cy="562.548" rx="27" ry="18"/>
<text text-anchor="middle" x="263.241" y="566.248" font-family="Times,serif" font-size="14.00">7</text>
</g>
<!-- https_//github.com/hasura/graphqurl&#45;&#45;7 -->
<g id="edge15" class="edge"><title>https_//github.com/hasura/graphqurl&#45;&#45;7</title>
<path fill="none" stroke="black" d="M25.5948,64.6094C63.7764,144.611 217.42,466.539 254.944,545.162"/>
</g>
<!-- 8 -->
<g id="node14" class="node"><title>8</title>
<ellipse fill="none" stroke="black" cx="543.389" cy="-57.8297" rx="27" ry="18"/>
<text text-anchor="middle" x="543.389" y="-54.1297" font-family="Times,serif" font-size="14.00">8</text>
</g>
<!-- https_//github.com/hasura/graphqurl&#45;&#45;8 -->
<g id="edge17" class="edge"><title>https_//github.com/hasura/graphqurl&#45;&#45;8</title>
<path fill="none" stroke="black" d="M98.3609,30.41C219.716,6.34778 441.914,-37.7094 517.457,-52.6879"/>
</g>
<!-- 9 -->
<g id="node16" class="node"><title>9</title>
<ellipse fill="none" stroke="black" cx="-109.115" cy="-251.623" rx="27" ry="18"/>
<text text-anchor="middle" x="-109.115" y="-247.923" font-family="Times,serif" font-size="14.00">9</text>
</g>
<!-- https_//github.com/hasura/graphqurl&#45;&#45;9 -->
<g id="edge19" class="edge"><title>https_//github.com/hasura/graphqurl&#45;&#45;9</title>
<path fill="none" stroke="black" d="M9.2768,28.3442C-13.3404,-25.1398 -79.3958,-181.344 -101.677,-234.033"/>
</g>
<!-- 10 -->
<g id="node17" class="node"><title>10</title>
<ellipse fill="none" stroke="black" cx="333.743" cy="-52.8414" rx="27" ry="18"/>
<text text-anchor="middle" x="333.743" y="-49.1414" font-family="Times,serif" font-size="14.00">10</text>
</g>
<!-- https_//github.com/hasura/graphqurl&#45;&#45;10 -->
<g id="edge21" class="edge"><title>https_//github.com/hasura/graphqurl&#45;&#45;10</title>
<path fill="none" stroke="black" d="M71.7896,29.3485C141.381,7.51372 258.475,-29.2256 309.146,-45.1242"/>
</g>
<!-- 11 -->
<g id="node18" class="node"><title>11</title>
<ellipse fill="none" stroke="black" cx="-524.976" cy="286.168" rx="27" ry="18"/>
<text text-anchor="middle" x="-524.976" y="289.868" font-family="Times,serif" font-size="14.00">11</text>
</g>
<!-- https_//github.com/hasura/graphqurl&#45;&#45;11 -->
<g id="edge23" class="edge"><title>https_//github.com/hasura/graphqurl&#45;&#45;11</title>
<path fill="none" stroke="black" d="M-22.8764,64.1671C-129.577,111.345 -419.282,239.436 -502.402,276.187"/>
</g>
<!-- 12 -->
<g id="node19" class="node"><title>12</title>
<ellipse fill="none" stroke="black" cx="-251.116" cy="-183.948" rx="27" ry="18"/>
<text text-anchor="middle" x="-251.116" y="-180.248" font-family="Times,serif" font-size="14.00">12</text>
</g>
<!-- https_//github.com/hasura/graphqurl&#45;&#45;12 -->
<g id="edge25" class="edge"><title>https_//github.com/hasura/graphqurl&#45;&#45;12</title>
<path fill="none" stroke="black" d="M-4.06218,28.4606C-55.659,-15.9005 -187.674,-129.403 -234.41,-169.584"/>
</g>
<!-- 13 -->
<g id="node20" class="node"><title>13</title>
<ellipse fill="none" stroke="black" cx="44.9453" cy="-264.262" rx="27" ry="18"/>
<text text-anchor="middle" x="44.9453" y="-260.562" font-family="Times,serif" font-size="14.00">13</text>
</g>
<!-- https_//github.com/hasura/graphqurl&#45;&#45;13 -->
<g id="edge27" class="edge"><title>https_//github.com/hasura/graphqurl&#45;&#45;13</title>
<path fill="none" stroke="black" d="M18.5992,28.4933C23.5428,-26.4398 38.3665,-191.159 43.3161,-246.159"/>
</g>
<!-- 14 -->
<g id="node22" class="node"><title>14</title>
<ellipse fill="none" stroke="black" cx="171.105" cy="9.17597" rx="27" ry="18"/>
<text text-anchor="middle" x="171.105" y="12.876" font-family="Times,serif" font-size="14.00">14</text>
</g>
<!-- https_//github.com/hasura/graphqurl&#45;&#45;14 -->
<g id="edge29" class="edge"><title>https_//github.com/hasura/graphqurl&#45;&#45;14</title>
<path fill="none" stroke="black" d="M85.925,29.8291C107.085,24.6985 129.071,19.3678 145.404,15.4074"/>
</g>
<!-- 15 -->
<g id="node23" class="node"><title>15</title>
<ellipse fill="none" stroke="black" cx="43.7532" cy="573.199" rx="27" ry="18"/>
<text text-anchor="middle" x="43.7532" y="576.899" font-family="Times,serif" font-size="14.00">15</text>
</g>
<!-- https_//github.com/hasura/graphqurl&#45;&#45;15 -->
<g id="edge31" class="edge"><title>https_//github.com/hasura/graphqurl&#45;&#45;15</title>
<path fill="none" stroke="black" d="M17.8962,64.6758C22.0164,145.706 38.723,474.272 42.8353,555.147"/>
</g>
<!-- 16 -->
<g id="node24" class="node"><title>16</title>
<ellipse fill="none" stroke="black" cx="-314.488" cy="-23.9188" rx="27" ry="18"/>
<text text-anchor="middle" x="-314.488" y="-20.2188" font-family="Times,serif" font-size="14.00">16</text>
</g>
<!-- https_//github.com/hasura/graphqurl&#45;&#45;16 -->
<g id="edge33" class="edge"><title>https_//github.com/hasura/graphqurl&#45;&#45;16</title>
<path fill="none" stroke="black" d="M-59.9029,30.2038C-133.341,14.5915 -239.826,-8.04635 -288.479,-18.3895"/>
</g>
<!-- 17 -->
<g id="node26" class="node"><title>17</title>
<ellipse fill="none" stroke="black" cx="542.337" cy="238.585" rx="27" ry="18"/>
<text text-anchor="middle" x="542.337" y="242.285" font-family="Times,serif" font-size="14.00">17</text>
</g>
<!-- https_//github.com/hasura/graphqurl&#45;&#45;17 -->
<g id="edge35" class="edge"><title>https_//github.com/hasura/graphqurl&#45;&#45;17</title>
<path fill="none" stroke="black" d="M64.5235,63.928C173.387,103.721 437.558,200.285 518.419,229.842"/>
</g>
<!-- 18 -->
<g id="node28" class="node"><title>18</title>
<ellipse fill="none" stroke="black" cx="-560.95" cy="-94.652" rx="27" ry="18"/>
<text text-anchor="middle" x="-560.95" y="-90.952" font-family="Times,serif" font-size="14.00">18</text>
</g>
<!-- https_//github.com/hasura/graphqurl&#45;&#45;18 -->
<g id="edge37" class="edge"><title>https_//github.com/hasura/graphqurl&#45;&#45;18</title>
<path fill="none" stroke="black" d="M-51.5905,29.7953C-180.009,-1.58016 -451.411,-67.8893 -535.54,-88.4438"/>
</g>
<!-- 19 -->
<g id="node29" class="node"><title>19</title>
<ellipse fill="none" stroke="black" cx="125.948" cy="349.456" rx="27" ry="18"/>
<text text-anchor="middle" x="125.948" y="353.156" font-family="Times,serif" font-size="14.00">19</text>
</g>
<!-- https_//github.com/hasura/graphqurl&#45;&#45;19 -->
<g id="edge39" class="edge"><title>https_//github.com/hasura/graphqurl&#45;&#45;19</title>
<path fill="none" stroke="black" d="M23.4649,64.5884C42.8928,118.591 100.425,278.512 119.628,331.889"/>
</g>
<!-- 20 -->
<g id="node30" class="node"><title>20</title>
<ellipse fill="none" stroke="black" cx="-144.709" cy="78.8821" rx="27" ry="18"/>
<text text-anchor="middle" x="-144.709" y="82.5821" font-family="Times,serif" font-size="14.00">20</text>
</g>
<!-- https_//github.com/hasura/graphqurl&#45;&#45;20 -->
<g id="edge41" class="edge"><title>https_//github.com/hasura/graphqurl&#45;&#45;20</title>
<path fill="none" stroke="black" d="M-63.8672,62.7147C-83.7619,66.6934 -103.657,70.6721 -118.732,73.6869"/>
</g>
<!-- 21 -->
<g id="node31" class="node"><title>21</title>
<ellipse fill="none" stroke="black" cx="-291.243" cy="357.712" rx="27" ry="18"/>
<text text-anchor="middle" x="-291.243" y="361.412" font-family="Times,serif" font-size="14.00">21</text>
</g>
<!-- https_//github.com/hasura/graphqurl&#45;&#45;21 -->
<g id="edge43" class="edge"><title>https_//github.com/hasura/graphqurl&#45;&#45;21</title>
<path fill="none" stroke="black" d="M-0.928856,64.6217C-56.4318,120.655 -224.952,290.788 -276.26,342.586"/>
</g>
<!-- 22 -->
<g id="node32" class="node"><title>22</title>
<ellipse fill="none" stroke="black" cx="358.979" cy="117.808" rx="27" ry="18"/>
<text text-anchor="middle" x="358.979" y="121.508" font-family="Times,serif" font-size="14.00">22</text>
</g>
<!-- https_//github.com/hasura/graphqurl&#45;&#45;22 -->
<g id="edge45" class="edge"><title>https_//github.com/hasura/graphqurl&#45;&#45;22</title>
<path fill="none" stroke="black" d="M95.4373,62.896C171.758,78.7983 283.271,102.034 333.172,112.431"/>
</g>
<!-- 23 -->
<g id="node33" class="node"><title>23</title>
<ellipse fill="none" stroke="black" cx="-472.394" cy="83.7493" rx="27" ry="18"/>
<text text-anchor="middle" x="-472.394" y="87.4493" font-family="Times,serif" font-size="14.00">23</text>
</g>
<!-- https_//github.com/hasura/graphqurl&#45;&#45;23 -->
<g id="edge47" class="edge"><title>https_//github.com/hasura/graphqurl&#45;&#45;23</title>
<path fill="none" stroke="black" d="M-127.866,57.5581C-240.039,66.0855 -386.003,77.1819 -445.442,81.7005"/>
</g>
<!-- 24 -->
<g id="node34" class="node"><title>24</title>
<ellipse fill="none" stroke="black" cx="177.807" cy="-166.14" rx="27" ry="18"/>
<text text-anchor="middle" x="177.807" y="-162.44" font-family="Times,serif" font-size="14.00">24</text>
</g>
<!-- https_//github.com/hasura/graphqurl&#45;&#45;24 -->
<g id="edge49" class="edge"><title>https_//github.com/hasura/graphqurl&#45;&#45;24</title>
<path fill="none" stroke="black" d="M30.6869,28.4136C61.5285,-12.3716 135.966,-110.809 165.466,-149.82"/>
</g>
<!-- 25 -->
<g id="node35" class="node"><title>25</title>
<ellipse fill="none" stroke="black" cx="326.371" cy="320.946" rx="27" ry="18"/>
<text text-anchor="middle" x="326.371" y="324.646" font-family="Times,serif" font-size="14.00">25</text>
</g>
<!-- https_//github.com/hasura/graphqurl&#45;&#45;25 -->
<g id="edge51" class="edge"><title>https_//github.com/hasura/graphqurl&#45;&#45;25</title>
<path fill="none" stroke="black" d="M37.2748,64.5513C94.68,115.463 257.41,259.786 309.859,306.302"/>
</g>
<!-- 26 -->
<g id="node36" class="node"><title>26</title>
<ellipse fill="none" stroke="black" cx="-307.083" cy="169.559" rx="27" ry="18"/>
<text text-anchor="middle" x="-307.083" y="173.259" font-family="Times,serif" font-size="14.00">26</text>
</g>
<!-- https_//github.com/hasura/graphqurl&#45;&#45;26 -->
<g id="edge53" class="edge"><title>https_//github.com/hasura/graphqurl&#45;&#45;26</title>
<path fill="none" stroke="black" d="M-29.1109,64.0412C-99.1814,90.6398 -230.003,140.3 -283.433,160.582"/>
</g>
<!-- 27 -->
<g id="node37" class="node"><title>27</title>
<ellipse fill="none" stroke="black" cx="347.117" cy="-234.265" rx="27" ry="18"/>
<text text-anchor="middle" x="347.117" y="-230.565" font-family="Times,serif" font-size="14.00">27</text>
</g>
<!-- https_//github.com/hasura/graphqurl&#45;&#45;27 -->
<g id="edge55" class="edge"><title>https_//github.com/hasura/graphqurl&#45;&#45;27</title>
<path fill="none" stroke="black" d="M38.1286,28.554C99.1822,-23.3769 274.852,-172.798 330.203,-219.878"/>
</g>
<!-- 28 -->
<g id="node38" class="node"><title>28</title>
<ellipse fill="none" stroke="black" cx="786.257" cy="113.99" rx="27" ry="18"/>
<text text-anchor="middle" x="786.257" y="117.69" font-family="Times,serif" font-size="14.00">28</text>
</g>
<!-- https_//github.com/hasura/graphqurl&#45;&#45;28 -->
<g id="edge57" class="edge"><title>https_//github.com/hasura/graphqurl&#45;&#45;28</title>
<path fill="none" stroke="black" d="M153.62,58.5269C340.788,74.9359 664.529,103.318 759.402,111.636"/>
</g>
<!-- https_//github.com/facebookexperimental/rome -->
<g id="node3" class="node"><title>https_//github.com/facebookexperimental/rome</title>
<ellipse fill="none" stroke="black" cx="-413.678" cy="-239.326" rx="231.259" ry="18"/>
<text text-anchor="middle" x="-413.678" y="-235.626" font-family="Times,serif" font-size="14.00">https_//github.com/facebookexperimental/rome</text>
</g>
<!-- 0&#45;&#45;https_//github.com/facebookexperimental/rome -->
<g id="edge2" class="edge"><title>0&#45;&#45;https_//github.com/facebookexperimental/rome</title>
<path fill="none" stroke="black" d="M-2.67597,-110.925C-70.6289,-132.155 -261.806,-191.88 -357.559,-221.794"/>
</g>
<!-- https_//github.com/samdenty/gqless -->
<g id="node5" class="node"><title>https_//github.com/samdenty/gqless</title>
<ellipse fill="none" stroke="black" cx="498.255" cy="543.442" rx="179.268" ry="18"/>
<text text-anchor="middle" x="498.255" y="547.142" font-family="Times,serif" font-size="14.00">https_//github.com/samdenty/gqless</text>
</g>
<!-- 1&#45;&#45;https_//github.com/samdenty/gqless -->
<g id="edge4" class="edge"><title>1&#45;&#45;https_//github.com/samdenty/gqless</title>
<path fill="none" stroke="black" d="M186.643,187.81C239.471,248.101 426.639,461.709 482.441,525.393"/>
</g>
<!-- 2&#45;&#45;https_//github.com/facebookexperimental/rome -->
<g id="edge6" class="edge"><title>2&#45;&#45;https_//github.com/facebookexperimental/rome</title>
<path fill="none" stroke="black" d="M-147.345,-78.5345C-197.015,-108.522 -325.546,-186.119 -383.979,-221.396"/>
</g>
<!-- 3&#45;&#45;https_//github.com/samdenty/gqless -->
<g id="edge8" class="edge"><title>3&#45;&#45;https_//github.com/samdenty/gqless</title>
<path fill="none" stroke="black" d="M27.3581,212.043C102.799,265.135 386.172,464.562 472.884,525.586"/>
</g>
<!-- https_//github.com/tabler/tabler&#45;icons -->
<g id="node9" class="node"><title>https_//github.com/tabler/tabler&#45;icons</title>
<ellipse fill="none" stroke="black" cx="-738.001" cy="496.298" rx="187.367" ry="18"/>
<text text-anchor="middle" x="-738.001" y="499.998" font-family="Times,serif" font-size="14.00">https_//github.com/tabler/tabler&#45;icons</text>
</g>
<!-- 4&#45;&#45;https_//github.com/tabler/tabler&#45;icons -->
<g id="edge10" class="edge"><title>4&#45;&#45;https_//github.com/tabler/tabler&#45;icons</title>
<path fill="none" stroke="black" d="M-471.028,555.144C-513.504,545.781 -599.885,526.741 -662.925,512.846"/>
</g>
<!-- https_//github.com/luruke/browser&#45;2020 -->
<g id="node11" class="node"><title>https_//github.com/luruke/browser&#45;2020</title>
<ellipse fill="none" stroke="black" cx="-188.01" cy="573.451" rx="198.765" ry="18"/>
<text text-anchor="middle" x="-188.01" y="577.151" font-family="Times,serif" font-size="14.00">https_//github.com/luruke/browser&#45;2020</text>
</g>
<!-- 5&#45;&#45;https_//github.com/luruke/browser&#45;2020 -->
<g id="edge12" class="edge"><title>5&#45;&#45;https_//github.com/luruke/browser&#45;2020</title>
<path fill="none" stroke="black" d="M-75.9155,392.445C-98.7779,429.362 -153.082,517.05 -176.707,555.198"/>
</g>
<!-- 6&#45;&#45;https_//github.com/luruke/browser&#45;2020 -->
<g id="edge14" class="edge"><title>6&#45;&#45;https_//github.com/luruke/browser&#45;2020</title>
<path fill="none" stroke="black" d="M-148.809,251.033C-156.002,310.196 -178.563,495.749 -185.772,555.041"/>
</g>
<!-- 7&#45;&#45;https_//github.com/samdenty/gqless -->
<g id="edge16" class="edge"><title>7&#45;&#45;https_//github.com/samdenty/gqless</title>
<path fill="none" stroke="black" d="M290.2,560.356C307.924,558.915 332.62,556.908 358.825,554.777"/>
</g>
<!-- https_//github.com/spotify/backstage -->
<g id="node15" class="node"><title>https_//github.com/spotify/backstage</title>
<ellipse fill="none" stroke="black" cx="788.127" cy="-228.335" rx="183.867" ry="18"/>
<text text-anchor="middle" x="788.127" y="-224.635" font-family="Times,serif" font-size="14.00">https_//github.com/spotify/backstage</text>
</g>
<!-- 8&#45;&#45;https_//github.com/spotify/backstage -->
<g id="edge18" class="edge"><title>8&#45;&#45;https_//github.com/spotify/backstage</title>
<path fill="none" stroke="black" d="M562.187,-70.9258C605.616,-101.182 712.976,-175.978 762.431,-210.433"/>
</g>
<!-- 9&#45;&#45;https_//github.com/facebookexperimental/rome -->
<g id="edge20" class="edge"><title>9&#45;&#45;https_//github.com/facebookexperimental/rome</title>
<path fill="none" stroke="black" d="M-136.143,-250.532C-154.195,-249.803 -179.782,-248.77 -208.195,-247.622"/>
</g>
<!-- 10&#45;&#45;https_//github.com/spotify/backstage -->
<g id="edge22" class="edge"><title>10&#45;&#45;https_//github.com/spotify/backstage</title>
<path fill="none" stroke="black" d="M357.215,-61.9072C429.18,-89.7015 647.598,-174.059 742.875,-210.857"/>
</g>
<!-- 11&#45;&#45;https_//github.com/tabler/tabler&#45;icons -->
<g id="edge24" class="edge"><title>11&#45;&#45;https_//github.com/tabler/tabler&#45;icons</title>
<path fill="none" stroke="black" d="M-540.296,301.28C-578.551,339.016 -678.157,437.267 -719.547,478.095"/>
</g>
<!-- 12&#45;&#45;https_//github.com/facebookexperimental/rome -->
<g id="edge26" class="edge"><title>12&#45;&#45;https_//github.com/facebookexperimental/rome</title>
<path fill="none" stroke="black" d="M-275.454,-192.239C-298.217,-199.993 -332.954,-211.827 -361.91,-221.691"/>
</g>
<!-- https_//github.com/CSSEGISandData/COVID&#45;19 -->
<g id="node21" class="node"><title>https_//github.com/CSSEGISandData/COVID&#45;19</title>
<ellipse fill="none" stroke="black" cx="543.441" cy="-355.947" rx="233.159" ry="18"/>
<text text-anchor="middle" x="543.441" y="-352.247" font-family="Times,serif" font-size="14.00">https_//github.com/CSSEGISandData/COVID&#45;19</text>
</g>
<!-- 13&#45;&#45;https_//github.com/CSSEGISandData/COVID&#45;19 -->
<g id="edge28" class="edge"><title>13&#45;&#45;https_//github.com/CSSEGISandData/COVID&#45;19</title>
<path fill="none" stroke="black" d="M71.0447,-269.063C141.261,-281.977 336.723,-317.927 453.046,-339.321"/>
</g>
<!-- 14&#45;&#45;https_//github.com/spotify/backstage -->
<g id="edge30" class="edge"><title>14&#45;&#45;https_//github.com/spotify/backstage</title>
<path fill="none" stroke="black" d="M194.539,0.155293C286.003,-35.052 619.936,-163.593 742.564,-210.796"/>
</g>
<!-- 15&#45;&#45;https_//github.com/luruke/browser&#45;2020 -->
<g id="edge32" class="edge"><title>15&#45;&#45;https_//github.com/luruke/browser&#45;2020</title>
<path fill="none" stroke="black" d="M16.7134,573.229C14.9223,573.231 13.0604,573.233 11.1334,573.235"/>
</g>
<!-- https_//github.com/hasura/graphql&#45;engine -->
<g id="node25" class="node"><title>https_//github.com/hasura/graphql&#45;engine</title>
<ellipse fill="none" stroke="black" cx="-755.347" cy="101.073" rx="206.063" ry="18"/>
<text text-anchor="middle" x="-755.347" y="104.773" font-family="Times,serif" font-size="14.00">https_//github.com/hasura/graphql&#45;engine</text>
</g>
<!-- 16&#45;&#45;https_//github.com/hasura/graphql&#45;engine -->
<g id="edge34" class="edge"><title>16&#45;&#45;https_//github.com/hasura/graphql&#45;engine</title>
<path fill="none" stroke="black" d="M-339.454,-16.8406C-407.305,2.39651 -596.565,56.0556 -694.661,83.8675"/>
</g>
<!-- https_//github.com/bottlerocket&#45;os/bottlerocket -->
<g id="node27" class="node"><title>https_//github.com/bottlerocket&#45;os/bottlerocket</title>
<ellipse fill="none" stroke="black" cx="777.172" cy="491.367" rx="232.859" ry="18"/>
<text text-anchor="middle" x="777.172" y="495.067" font-family="Times,serif" font-size="14.00">https_//github.com/bottlerocket&#45;os/bottlerocket</text>
</g>
<!-- 17&#45;&#45;https_//github.com/bottlerocket&#45;os/bottlerocket -->
<g id="edge36" class="edge"><title>17&#45;&#45;https_//github.com/bottlerocket&#45;os/bottlerocket</title>
<path fill="none" stroke="black" d="M556.674,254.017C597.801,298.288 716.05,425.573 760.242,473.142"/>
</g>
<!-- 18&#45;&#45;https_//github.com/hasura/graphql&#45;engine -->
<g id="edge38" class="edge"><title>18&#45;&#45;https_//github.com/hasura/graphql&#45;engine</title>
<path fill="none" stroke="black" d="M-575.881,-79.6188C-611.089,-44.1709 -699.192,44.5346 -737.307,82.9098"/>
</g>
<!-- 19&#45;&#45;https_//github.com/samdenty/gqless -->
<g id="edge40" class="edge"><title>19&#45;&#45;https_//github.com/samdenty/gqless</title>
<path fill="none" stroke="black" d="M147.302,360.583C209.107,392.785 388.547,486.28 464.094,525.643"/>
</g>
<!-- 20&#45;&#45;https_//github.com/hasura/graphql&#45;engine -->
<g id="edge42" class="edge"><title>20&#45;&#45;https_//github.com/hasura/graphql&#45;engine</title>
<path fill="none" stroke="black" d="M-171.735,79.8643C-239.595,82.3304 -421.955,88.9575 -564.943,94.1539"/>
</g>
<!-- 21&#45;&#45;https_//github.com/tabler/tabler&#45;icons -->
<g id="edge44" class="edge"><title>21&#45;&#45;https_//github.com/tabler/tabler&#45;icons</title>
<path fill="none" stroke="black" d="M-315.899,365.361C-385.502,386.952 -584.776,448.767 -682.546,479.095"/>
</g>
<!-- 22&#45;&#45;https_//github.com/bottlerocket&#45;os/bottlerocket -->
<g id="edge46" class="edge"><title>22&#45;&#45;https_//github.com/bottlerocket&#45;os/bottlerocket</title>
<path fill="none" stroke="black" d="M375.373,132.452C440.912,190.996 684.043,408.177 756.601,472.991"/>
</g>
<!-- 23&#45;&#45;https_//github.com/hasura/graphql&#45;engine -->
<g id="edge48" class="edge"><title>23&#45;&#45;https_//github.com/hasura/graphql&#45;engine</title>
<path fill="none" stroke="black" d="M-499.525,85.4104C-520.895,86.7189 -552.663,88.6639 -586.607,90.7422"/>
</g>
<!-- 24&#45;&#45;https_//github.com/CSSEGISandData/COVID&#45;19 -->
<g id="edge50" class="edge"><title>24&#45;&#45;https_//github.com/CSSEGISandData/COVID&#45;19</title>
<path fill="none" stroke="black" d="M199.314,-177.304C260.239,-208.932 434.388,-299.336 508.918,-338.026"/>
</g>
<!-- 25&#45;&#45;https_//github.com/samdenty/gqless -->
<g id="edge52" class="edge"><title>25&#45;&#45;https_//github.com/samdenty/gqless</title>
<path fill="none" stroke="black" d="M339.01,337.306C370.331,377.851 451.373,482.755 484.169,525.208"/>
</g>
<!-- 26&#45;&#45;https_//github.com/hasura/graphql&#45;engine -->
<g id="edge54" class="edge"><title>26&#45;&#45;https_//github.com/hasura/graphql&#45;engine</title>
<path fill="none" stroke="black" d="M-333.451,165.531C-394.632,156.183 -548.944,132.608 -652.987,116.712"/>
</g>
<!-- 27&#45;&#45;https_//github.com/CSSEGISandData/COVID&#45;19 -->
<g id="edge56" class="edge"><title>27&#45;&#45;https_//github.com/CSSEGISandData/COVID&#45;19</title>
<path fill="none" stroke="black" d="M367.022,-246.602C401.823,-268.172 473.864,-312.823 514.293,-337.881"/>
</g>
<!-- 28&#45;&#45;https_//github.com/bottlerocket&#45;os/bottlerocket -->
<g id="edge58" class="edge"><title>28&#45;&#45;https_//github.com/bottlerocket&#45;os/bottlerocket</title>
<path fill="none" stroke="black" d="M785.819,132.192C784.28,196.09 779.137,409.736 777.606,473.348"/>
</g>
<!-- https_//github.com/graphql/graphql&#45;spec -->
<g id="node39" class="node"><title>https_//github.com/graphql/graphql&#45;spec</title>
<ellipse fill="none" stroke="black" cx="-28.4183" cy="-455.992" rx="200.665" ry="18"/>
<text text-anchor="middle" x="-28.4183" y="-452.292" font-family="Times,serif" font-size="14.00">https_//github.com/graphql/graphql&#45;spec</text>
</g>
<!-- 29 -->
<g id="node40" class="node"><title>29</title>
<ellipse fill="none" stroke="black" cx="-710.19" cy="-642.556" rx="27" ry="18"/>
<text text-anchor="middle" x="-710.19" y="-638.856" font-family="Times,serif" font-size="14.00">29</text>
</g>
<!-- https_//github.com/graphql/graphql&#45;spec&#45;&#45;29 -->
<g id="edge59" class="edge"><title>https_//github.com/graphql/graphql&#45;spec&#45;&#45;29</title>
<path fill="none" stroke="black" d="M-91.0317,-473.126C-235.707,-512.716 -588.229,-609.182 -685.164,-635.708"/>
</g>
<!-- 30 -->
<g id="node42" class="node"><title>30</title>
<ellipse fill="none" stroke="black" cx="-481.465" cy="-433.953" rx="27" ry="18"/>
<text text-anchor="middle" x="-481.465" y="-430.253" font-family="Times,serif" font-size="14.00">30</text>
</g>
<!-- https_//github.com/graphql/graphql&#45;spec&#45;&#45;30 -->
<g id="edge61" class="edge"><title>https_//github.com/graphql/graphql&#45;spec&#45;&#45;30</title>
<path fill="none" stroke="black" d="M-205.2,-447.393C-299.311,-442.814 -405.472,-437.65 -454.276,-435.276"/>
</g>
<!-- 31 -->
<g id="node43" class="node"><title>31</title>
<ellipse fill="none" stroke="black" cx="-745.774" cy="-276.005" rx="27" ry="18"/>
<text text-anchor="middle" x="-745.774" y="-272.305" font-family="Times,serif" font-size="14.00">31</text>
</g>
<!-- https_//github.com/graphql/graphql&#45;spec&#45;&#45;31 -->
<g id="edge63" class="edge"><title>https_//github.com/graphql/graphql&#45;spec&#45;&#45;31</title>
<path fill="none" stroke="black" d="M-96.2284,-438.978C-250.077,-400.377 -619.995,-307.563 -720.311,-282.393"/>
</g>
<!-- 32 -->
<g id="node44" class="node"><title>32</title>
<ellipse fill="none" stroke="black" cx="-364.59" cy="-682.547" rx="27" ry="18"/>
<text text-anchor="middle" x="-364.59" y="-678.847" font-family="Times,serif" font-size="14.00">32</text>
</g>
<!-- https_//github.com/graphql/graphql&#45;spec&#45;&#45;32 -->
<g id="edge65" class="edge"><title>https_//github.com/graphql/graphql&#45;spec&#45;&#45;32</title>
<path fill="none" stroke="black" d="M-55.0781,-473.959C-120.613,-518.125 -288.38,-631.187 -345.336,-669.571"/>
</g>
<!-- 33 -->
<g id="node45" class="node"><title>33</title>
<ellipse fill="none" stroke="black" cx="458.5" cy="-677.598" rx="27" ry="18"/>
<text text-anchor="middle" x="458.5" y="-673.898" font-family="Times,serif" font-size="14.00">33</text>
</g>
<!-- https_//github.com/graphql/graphql&#45;spec&#45;&#45;33 -->
<g id="edge67" class="edge"><title>https_//github.com/graphql/graphql&#45;spec&#45;&#45;33</title>
<path fill="none" stroke="black" d="M10.6052,-473.753C107.982,-518.071 359.351,-632.473 435.987,-667.352"/>
</g>
<!-- 34 -->
<g id="node46" class="node"><title>34</title>
<ellipse fill="none" stroke="black" cx="152.958" cy="-394.215" rx="27" ry="18"/>
<text text-anchor="middle" x="152.958" y="-390.515" font-family="Times,serif" font-size="14.00">34</text>
</g>
<!-- https_//github.com/graphql/graphql&#45;spec&#45;&#45;34 -->
<g id="edge69" class="edge"><title>https_//github.com/graphql/graphql&#45;spec&#45;&#45;34</title>
<path fill="none" stroke="black" d="M23.0716,-438.455C57.6331,-426.683 101.6,-411.708 128.491,-402.549"/>
</g>
<!-- 35 -->
<g id="node47" class="node"><title>35</title>
<ellipse fill="none" stroke="black" cx="-237.566" cy="-419.541" rx="27" ry="18"/>
<text text-anchor="middle" x="-237.566" y="-415.841" font-family="Times,serif" font-size="14.00">35</text>
</g>
<!-- https_//github.com/graphql/graphql&#45;spec&#45;&#45;35 -->
<g id="edge71" class="edge"><title>https_//github.com/graphql/graphql&#45;spec&#45;&#45;35</title>
<path fill="none" stroke="black" d="M-120.458,-439.951C-153.555,-434.183 -188.352,-428.118 -211.328,-424.114"/>
</g>
<!-- 36 -->
<g id="node48" class="node"><title>36</title>
<ellipse fill="none" stroke="black" cx="174.266" cy="-677.907" rx="27" ry="18"/>
<text text-anchor="middle" x="174.266" y="-674.207" font-family="Times,serif" font-size="14.00">36</text>
</g>
<!-- https_//github.com/graphql/graphql&#45;spec&#45;&#45;36 -->
<g id="edge73" class="edge"><title>https_//github.com/graphql/graphql&#45;spec&#45;&#45;36</title>
<path fill="none" stroke="black" d="M-11.8318,-474.153C27.1206,-516.801 123.886,-622.747 160.199,-662.506"/>
</g>
<!-- 37 -->
<g id="node49" class="node"><title>37</title>
<ellipse fill="none" stroke="black" cx="328.204" cy="-449.492" rx="27" ry="18"/>
<text text-anchor="middle" x="328.204" y="-445.792" font-family="Times,serif" font-size="14.00">37</text>
</g>
<!-- https_//github.com/graphql/graphql&#45;spec&#45;&#45;37 -->
<g id="edge75" class="edge"><title>https_//github.com/graphql/graphql&#45;spec&#45;&#45;37</title>
<path fill="none" stroke="black" d="M168.408,-452.405C220.985,-451.446 271.392,-450.527 301.077,-449.986"/>
</g>
<!-- 38 -->
<g id="node50" class="node"><title>38</title>
<ellipse fill="none" stroke="black" cx="767.315" cy="-617.805" rx="27" ry="18"/>
<text text-anchor="middle" x="767.315" y="-614.105" font-family="Times,serif" font-size="14.00">38</text>
</g>
<!-- https_//github.com/graphql/graphql&#45;spec&#45;&#45;38 -->
<g id="edge77" class="edge"><title>https_//github.com/graphql/graphql&#45;spec&#45;&#45;38</title>
<path fill="none" stroke="black" d="M52.6294,-472.473C227.885,-508.112 634.901,-590.879 741.422,-612.54"/>
</g>
<!-- https_//github.com/facebook/react -->
<g id="node41" class="node"><title>https_//github.com/facebook/react</title>
<ellipse fill="none" stroke="black" cx="-90.1112" cy="-686.698" rx="170.87" ry="18"/>
<text text-anchor="middle" x="-90.1112" y="-682.998" font-family="Times,serif" font-size="14.00">https_//github.com/facebook/react</text>
</g>
<!-- 29&#45;&#45;https_//github.com/facebook/react -->
<g id="edge60" class="edge"><title>29&#45;&#45;https_//github.com/facebook/react</title>
<path fill="none" stroke="black" d="M-683.147,-644.481C-606.107,-649.965 -381.421,-665.96 -231.803,-676.611"/>
</g>
<!-- 30&#45;&#45;https_//github.com/facebookexperimental/rome -->
<g id="edge62" class="edge"><title>30&#45;&#45;https_//github.com/facebookexperimental/rome</title>
<path fill="none" stroke="black" d="M-475.33,-416.338C-462.489,-379.47 -432.902,-294.522 -419.946,-257.324"/>
</g>
<!-- 31&#45;&#45;https_//github.com/facebookexperimental/rome -->
<g id="edge64" class="edge"><title>31&#45;&#45;https_//github.com/facebookexperimental/rome</title>
<path fill="none" stroke="black" d="M-718.879,-273.034C-681.433,-268.898 -610.993,-261.119 -547.213,-254.074"/>
</g>
<!-- 32&#45;&#45;https_//github.com/facebook/react -->
<g id="edge66" class="edge"><title>32&#45;&#45;https_//github.com/facebook/react</title>
<path fill="none" stroke="black" d="M-337.268,-682.96C-317.742,-683.255 -289.649,-683.68 -259.352,-684.138"/>
</g>
<!-- 33&#45;&#45;https_//github.com/facebook/react -->
<g id="edge68" class="edge"><title>33&#45;&#45;https_//github.com/facebook/react</title>
<path fill="none" stroke="black" d="M431.294,-678.049C367.837,-679.102 205.795,-681.79 79.0471,-683.892"/>
</g>
<!-- 34&#45;&#45;https_//github.com/CSSEGISandData/COVID&#45;19 -->
<g id="edge70" class="edge"><title>34&#45;&#45;https_//github.com/CSSEGISandData/COVID&#45;19</title>
<path fill="none" stroke="black" d="M179.797,-391.585C224.683,-387.186 318.029,-378.038 398.904,-370.112"/>
</g>
<!-- 35&#45;&#45;https_//github.com/facebookexperimental/rome -->
<g id="edge72" class="edge"><title>35&#45;&#45;https_//github.com/facebookexperimental/rome</title>
<path fill="none" stroke="black" d="M-252.581,-404.176C-285.022,-370.979 -361.512,-292.707 -396.122,-257.29"/>
</g>
<!-- 36&#45;&#45;https_//github.com/facebook/react -->
<g id="edge74" class="edge"><title>36&#45;&#45;https_//github.com/facebook/react</title>
<path fill="none" stroke="black" d="M146.968,-678.815C128.234,-679.438 101.656,-680.321 73.0251,-681.273"/>
</g>
<!-- 37&#45;&#45;https_//github.com/CSSEGISandData/COVID&#45;19 -->
<g id="edge76" class="edge"><title>37&#45;&#45;https_//github.com/CSSEGISandData/COVID&#45;19</title>
<path fill="none" stroke="black" d="M350.832,-439.658C386.773,-424.037 457.438,-393.325 502.455,-373.76"/>
</g>
<!-- 38&#45;&#45;https_//github.com/CSSEGISandData/COVID&#45;19 -->
<g id="edge78" class="edge"><title>38&#45;&#45;https_//github.com/CSSEGISandData/COVID&#45;19</title>
<path fill="none" stroke="black" d="M753.647,-601.819C714.25,-555.737 600.617,-422.824 558.974,-374.116"/>
</g>
</g>
</svg>
